<?xml version="1.0" encoding="UTF-8" standalone="no"?>
<!-- Created with Inkscape (http://www.inkscape.org/) -->

<svg
   width="21.184305mm"
   height="87.610352mm"
   viewBox="0 0 21.184305 87.610352"
   version="1.1"
   id="svg1"
   xmlns="http://www.w3.org/2000/svg"
   xmlns:svg="http://www.w3.org/2000/svg">
  <defs
     id="defs1">
    <clipPath
       clipPathUnits="userSpaceOnUse"
       id="clipPath320">
      <path
         d="M 0,0 H 841.89 V 595.28 H 0 Z"
         transform="translate(-627.07112,-273.85211)"
         id="path320" />
    </clipPath>
    <clipPath
       clipPathUnits="userSpaceOnUse"
       id="clipPath322">
      <path
         d="M 0,0 H 841.89 V 595.28 H 0 Z"
         transform="translate(-627.07112,-295.041)"
         id="path322" />
    </clipPath>
    <clipPath
       clipPathUnits="userSpaceOnUse"
       id="clipPath324">
      <path
         d="M 0,0 H 841.89 V 595.28 H 0 Z"
         transform="translate(-627.11432,-287.7297)"
         id="path324" />
    </clipPath>
    <clipPath
       clipPathUnits="userSpaceOnUse"
       id="clipPath326">
      <path
         d="M 0,0 H 841.89 V 595.28 H 0 Z"
         transform="translate(-626.65232,-321.55871)"
         id="path326" />
    </clipPath>
    <clipPath
       clipPathUnits="userSpaceOnUse"
       id="clipPath328">
      <path
         d="M 0,0 H 841.89 V 595.28 H 0 Z"
         transform="translate(-630.10862,-322.59741)"
         id="path328" />
    </clipPath>
    <clipPath
       clipPathUnits="userSpaceOnUse"
       id="clipPath330">
      <path
         d="M 0,0 H 841.89 V 595.28 H 0 Z"
         transform="translate(-632.66942,-323.91761)"
         id="path330" />
    </clipPath>
    <clipPath
       clipPathUnits="userSpaceOnUse"
       id="clipPath332">
      <path
         d="M 0,0 H 841.89 V 595.28 H 0 Z"
         transform="translate(-630.27952,-322.01121)"
         id="path332" />
    </clipPath>
    <clipPath
       clipPathUnits="userSpaceOnUse"
       id="clipPath334">
      <path
         d="M 0,0 H 841.89 V 595.28 H 0 Z"
         transform="translate(-634.90952,-325.43521)"
         id="path334" />
    </clipPath>
    <clipPath
       clipPathUnits="userSpaceOnUse"
       id="clipPath336">
      <path
         d="M 0,0 H 841.89 V 595.28 H 0 Z"
         transform="translate(-636.80002,-326.96771)"
         id="path336" />
    </clipPath>
    <clipPath
       clipPathUnits="userSpaceOnUse"
       id="clipPath338">
      <path
         d="M 0,0 H 841.89 V 595.28 H 0 Z"
         transform="translate(-632.90402,-323.31561)"
         id="path338" />
    </clipPath>
    <clipPath
       clipPathUnits="userSpaceOnUse"
       id="clipPath340">
      <path
         d="M 0,0 H 841.89 V 595.28 H 0 Z"
         transform="translate(-635.26151,-325.00381)"
         id="path340" />
    </clipPath>
    <clipPath
       clipPathUnits="userSpaceOnUse"
       id="clipPath342">
      <path
         d="M 0,0 H 841.89 V 595.28 H 0 Z"
         transform="translate(-627.07112,-295.29371)"
         id="path342" />
    </clipPath>
    <clipPath
       clipPathUnits="userSpaceOnUse"
       id="clipPath344">
      <path
         d="M 0,0 H 841.89 V 595.28 H 0 Z"
         transform="translate(-623.08142,-303.05341)"
         id="path344" />
    </clipPath>
    <clipPath
       clipPathUnits="userSpaceOnUse"
       id="clipPath346">
      <path
         d="M 0,0 H 841.89 V 595.28 H 0 Z"
         transform="translate(-623.47972,-303.36601)"
         id="path346" />
    </clipPath>
    <clipPath
       clipPathUnits="userSpaceOnUse"
       id="clipPath348">
      <path
         d="M 0,0 H 841.89 V 595.28 H 0 Z"
         transform="translate(-628.51982,-182.88581)"
         id="path348" />
    </clipPath>
    <clipPath
       clipPathUnits="userSpaceOnUse"
       id="clipPath350">
      <path
         d="M 0,0 H 841.89 V 595.28 H 0 Z"
         transform="translate(-644.39482,-230.36771)"
         id="path350" />
    </clipPath>
    <clipPath
       clipPathUnits="userSpaceOnUse"
       id="clipPath352">
      <path
         d="M 0,0 H 841.89 V 595.28 H 0 Z"
         transform="translate(-644.08252,-103.1174)"
         id="path352" />
    </clipPath>
    <clipPath
       clipPathUnits="userSpaceOnUse"
       id="clipPath354">
      <path
         d="M 0,0 H 841.89 V 595.28 H 0 Z"
         transform="translate(-632.48942,-261.88101)"
         id="path354" />
    </clipPath>
    <clipPath
       clipPathUnits="userSpaceOnUse"
       id="clipPath356">
      <path
         d="M 0,0 H 841.89 V 595.28 H 0 Z"
         transform="translate(-645.83762,-247.89021)"
         id="path356" />
    </clipPath>
    <clipPath
       clipPathUnits="userSpaceOnUse"
       id="clipPath358">
      <path
         d="M 0,0 H 841.89 V 595.28 H 0 Z"
         transform="translate(-622.17362,-147.7088)"
         id="path358" />
    </clipPath>
    <clipPath
       clipPathUnits="userSpaceOnUse"
       id="clipPath360">
      <path
         d="M 0,0 H 841.89 V 595.28 H 0 Z"
         transform="translate(-647.88131,-121.2531)"
         id="path360" />
    </clipPath>
    <clipPath
       clipPathUnits="userSpaceOnUse"
       id="clipPath362">
      <path
         d="M 0,0 H 841.89 V 595.28 H 0 Z"
         transform="translate(-610.87202,-263.51631)"
         id="path362" />
    </clipPath>
    <clipPath
       clipPathUnits="userSpaceOnUse"
       id="clipPath364">
      <path
         d="M 0,0 H 841.89 V 595.28 H 0 Z"
         transform="translate(-606.44042,-257.7381)"
         id="path364" />
    </clipPath>
    <clipPath
       clipPathUnits="userSpaceOnUse"
       id="clipPath366">
      <path
         d="M 0,0 H 841.89 V 595.28 H 0 Z"
         transform="translate(-613.72721,-251.24811)"
         id="path366" />
    </clipPath>
    <clipPath
       clipPathUnits="userSpaceOnUse"
       id="clipPath368">
      <path
         d="M 0,0 H 841.89 V 595.28 H 0 Z"
         transform="translate(-613.72721,-245.75291)"
         id="path368" />
    </clipPath>
    <clipPath
       clipPathUnits="userSpaceOnUse"
       id="clipPath370">
      <path
         d="M 0,0 H 841.89 V 595.28 H 0 Z"
         transform="translate(-613.72721,-242.71101)"
         id="path370" />
    </clipPath>
    <clipPath
       clipPathUnits="userSpaceOnUse"
       id="clipPath372">
      <path
         d="M 0,0 H 841.89 V 595.28 H 0 Z"
         transform="translate(-606.44042,-238.38761)"
         id="path372" />
    </clipPath>
    <clipPath
       clipPathUnits="userSpaceOnUse"
       id="clipPath374">
      <path
         d="M 0,0 H 841.89 V 595.28 H 0 Z"
         transform="translate(-606.24221,-229.6266)"
         id="path374" />
    </clipPath>
    <clipPath
       clipPathUnits="userSpaceOnUse"
       id="clipPath376">
      <path
         d="M 0,0 H 841.89 V 595.28 H 0 Z"
         transform="translate(-613.72721,-222.01511)"
         id="path376" />
    </clipPath>
    <clipPath
       clipPathUnits="userSpaceOnUse"
       id="clipPath378">
      <path
         d="M 0,0 H 841.89 V 595.28 H 0 Z"
         transform="translate(-606.44042,-217.69221)"
         id="path378" />
    </clipPath>
    <clipPath
       clipPathUnits="userSpaceOnUse"
       id="clipPath380">
      <path
         d="M 0,0 H 841.89 V 595.28 H 0 Z"
         transform="translate(-611.54122,-208.1802)"
         id="path380" />
    </clipPath>
    <clipPath
       clipPathUnits="userSpaceOnUse"
       id="clipPath382">
      <path
         d="M 0,0 H 841.89 V 595.28 H 0 Z"
         transform="translate(-612.43352,-203.7639)"
         id="path382" />
    </clipPath>
    <clipPath
       clipPathUnits="userSpaceOnUse"
       id="clipPath384">
      <path
         d="M 0,0 H 841.89 V 595.28 H 0 Z"
         transform="translate(-613.72721,-199.2444)"
         id="path384" />
    </clipPath>
    <clipPath
       clipPathUnits="userSpaceOnUse"
       id="clipPath386">
      <path
         d="M 0,0 H 841.89 V 595.28 H 0 Z"
         transform="translate(-612.43352,-194.71571)"
         id="path386" />
    </clipPath>
    <clipPath
       clipPathUnits="userSpaceOnUse"
       id="clipPath388">
      <path
         d="M 0,0 H 841.89 V 595.28 H 0 Z"
         transform="translate(-609.18662,-184.7096)"
         id="path388" />
    </clipPath>
    <clipPath
       clipPathUnits="userSpaceOnUse"
       id="clipPath390">
      <path
         d="M 0,0 H 841.89 V 595.28 H 0 Z"
         transform="translate(-612.43352,-181.5173)"
         id="path390" />
    </clipPath>
    <clipPath
       clipPathUnits="userSpaceOnUse"
       id="clipPath392">
      <path
         d="M 0,0 H 841.89 V 595.28 H 0 Z"
         transform="translate(-606.44042,-176.8838)"
         id="path392" />
    </clipPath>
    <clipPath
       clipPathUnits="userSpaceOnUse"
       id="clipPath394">
      <path
         d="M 0,0 H 841.89 V 595.28 H 0 Z"
         transform="translate(-608.20262,-163.05131)"
         id="path394" />
    </clipPath>
    <clipPath
       clipPathUnits="userSpaceOnUse"
       id="clipPath396">
      <path
         d="M 0,0 H 841.89 V 595.28 H 0 Z"
         transform="translate(-606.44042,-159.6723)"
         id="path396" />
    </clipPath>
    <clipPath
       clipPathUnits="userSpaceOnUse"
       id="clipPath398">
      <path
         d="M 0,0 H 841.89 V 595.28 H 0 Z"
         transform="translate(-612.43352,-149.17841)"
         id="path398" />
    </clipPath>
    <clipPath
       clipPathUnits="userSpaceOnUse"
       id="clipPath400">
      <path
         d="M 0,0 H 841.89 V 595.28 H 0 Z"
         transform="translate(-606.44042,-144.5448)"
         id="path400" />
    </clipPath>
    <clipPath
       clipPathUnits="userSpaceOnUse"
       id="clipPath402">
      <path
         d="M 0,0 H 841.89 V 595.28 H 0 Z"
         transform="translate(-608.99332,-132.2631)"
         id="path402" />
    </clipPath>
    <clipPath
       clipPathUnits="userSpaceOnUse"
       id="clipPath404">
      <path
         d="M 0,0 H 841.89 V 595.28 H 0 Z"
         transform="translate(-613.72721,-130.8722)"
         id="path404" />
    </clipPath>
    <clipPath
       clipPathUnits="userSpaceOnUse"
       id="clipPath406">
      <path
         d="M 0,0 H 841.89 V 595.28 H 0 Z"
         transform="translate(-606.44042,-122.4624)"
         id="path406" />
    </clipPath>
    <clipPath
       clipPathUnits="userSpaceOnUse"
       id="clipPath408">
      <path
         d="M 0,0 H 841.89 V 595.28 H 0 Z"
         transform="translate(-608.20262,-112.32371)"
         id="path408" />
    </clipPath>
    <clipPath
       clipPathUnits="userSpaceOnUse"
       id="clipPath410">
      <path
         d="M 0,0 H 841.89 V 595.28 H 0 Z"
         transform="translate(-606.44042,-108.9447)"
         id="path410" />
    </clipPath>
    <clipPath
       clipPathUnits="userSpaceOnUse"
       id="clipPath412">
      <path
         d="M 0,0 H 841.89 V 595.28 H 0 Z"
         transform="translate(-608.20262,-98.6055)"
         id="path412" />
    </clipPath>
    <clipPath
       clipPathUnits="userSpaceOnUse"
       id="clipPath414">
      <path
         d="M 0,0 H 841.89 V 595.28 H 0 Z"
         transform="translate(-606.24221,-92.3436)"
         id="path414" />
    </clipPath>
    <clipPath
       clipPathUnits="userSpaceOnUse"
       id="clipPath416">
      <path
         d="M 0,0 H 841.89 V 595.28 H 0 Z"
         transform="translate(-609.18172,-85.8174)"
         id="path416" />
    </clipPath>
  </defs>
  <g
     id="layer1"
     transform="translate(-97.606858,-57.464925)">
    <path
       id="path319"
       d="m 0,0 -5.09,1.102 1.465,5.854 c -13.195,1.13 -22.78,4.173 -22.78,4.173 -1.934,1.328 -3.62,4.036 -3.62,4.036 0,0 3.292,-0.812 5.752,-0.911 5.114,-0.204 13.136,0.47 18.923,-0.155 -0.006,-0.028 2.678,-0.042 5.35,-0.042 2.672,0 5.356,0.014 5.35,0.042 5.787,0.625 13.809,-0.049 18.923,0.155 2.459,0.099 5.752,0.911 5.752,0.911 0,0 -1.686,-2.708 -3.62,-4.036 0,0 -9.585,-3.043 -22.78,-4.173 L 5.09,1.102 Z"
       style="fill:#009944;fill-opacity:1;fill-rule:nonzero;stroke:none"
       transform="matrix(0.35277776,0,0,-0.35277776,108.19901,77.464814)"
       clip-path="url(#clipPath320)" />
    <path
       id="path321"
       d="m 0,0 c 3.826,-0.009 7.753,0 7.732,0.054 5.949,0.992 12.524,0.563 15.745,0.615 1.846,0.029 4.08,0.529 4.08,0.529 C 27.166,0.455 25.719,-1.421 23.843,-2.751 22.473,-3.572 20.752,-4.3 19.307,-4.823 17.695,-5.406 11.129,-6.899 8.4,-7.247 6.702,-7.463 5.01,-7.679 3.54,-7.791 L 4.898,-13.281 0,-14.11 l -4.898,0.829 1.358,5.49 c -1.47,0.112 -3.162,0.328 -4.86,0.544 -2.729,0.348 -9.295,1.841 -10.908,2.424 -1.444,0.523 -3.165,1.251 -4.535,2.072 -1.876,1.33 -3.323,3.206 -3.714,3.949 0,0 2.234,-0.5 4.08,-0.529 3.221,-0.052 9.796,0.377 15.745,-0.615 C -7.754,0 -3.826,-0.009 0,0"
       style="fill:#16ae68;fill-opacity:1;fill-rule:nonzero;stroke:none"
       transform="matrix(0.35277776,0,0,-0.35277776,108.19901,69.989843)"
       clip-path="url(#clipPath322)" />
    <path
       id="path323"
       d="M 0,0 -0.043,0.007 -0.086,0 l -4.619,0.548 1.25,5.305 c -0.334,-0.159 -2.509,-0.034 -4.106,0.245 -3.069,0.535 -6.053,1.293 -8.856,2.606 -1.438,0.674 -3.128,1.72 -4.535,2.932 -1.877,1.525 -3.111,3.325 -3.558,4.184 -0.021,-0.038 2.759,-0.449 3.988,-0.509 2.324,-0.113 6.802,-0.273 12.889,-0.782 0.026,-0.039 3.838,-0.051 7.59,-0.047 3.751,-0.004 7.563,0.008 7.59,0.047 6.086,0.509 10.564,0.669 12.889,0.782 1.229,0.06 4.008,0.471 3.988,0.509 C 23.976,14.961 22.742,13.161 20.866,11.636 19.458,10.424 17.768,9.378 16.331,8.704 13.527,7.391 10.543,6.633 7.475,6.098 5.878,5.819 3.703,5.694 3.368,5.853 l 1.25,-5.305 z"
       style="fill:#88c897;fill-opacity:1;fill-rule:nonzero;stroke:none"
       transform="matrix(0.35277776,0,0,-0.35277776,108.21425,72.569107)"
       clip-path="url(#clipPath324)" />
    <path
       id="path325"
       d="M 0,0 C 0,0 -0.007,-0.023 0.985,0.219 4.094,0.977 7.743,3.083 9.757,5.253 9.952,5.463 10.206,5.8 10.206,5.8 10.421,6.171 10.578,5.546 9.854,4.686 8.031,2.517 3.995,0.064 0.064,-0.644 -0.414,-0.731 -0.482,-0.06 0,0"
       style="fill:#009944;fill-opacity:1;fill-rule:nonzero;stroke:none"
       transform="matrix(0.35277776,0,0,-0.35277776,108.05127,60.634986)"
       clip-path="url(#clipPath326)" />
    <path
       id="path327"
       d="m 0,0 c 0,0 -0.691,1.022 -0.508,2.191 0.183,1.168 1.211,2.098 1.211,2.098 0,0 0.343,-1.051 0.388,-2.353 C 1.125,0.946 0,0 0,0"
       style="fill:#009944;fill-opacity:1;fill-rule:evenodd;stroke:none"
       transform="matrix(0.35277776,0,0,-0.35277776,109.27058,60.268556)"
       clip-path="url(#clipPath328)" />
    <path
       id="path329"
       d="m 0,0 c 0,0 -0.668,1.022 -0.515,2.207 0.153,1.185 1.107,2.144 1.107,2.144 0,0 0.341,-1.058 0.405,-2.373 C 1.045,0.977 0,0 0,0"
       style="fill:#009944;fill-opacity:1;fill-rule:evenodd;stroke:none"
       transform="matrix(0.35277776,0,0,-0.35277776,110.17397,59.802818)"
       clip-path="url(#clipPath330)" />
    <path
       id="path331"
       d="m 0,0 c 0,0 0.911,0.431 1.985,-0.048 1.074,-0.479 1.955,-1.407 1.955,-1.407 0,0 -0.743,-0.391 -2.307,-0.039 C 0.423,-1.222 0,0 0,0"
       style="fill:#009944;fill-opacity:1;fill-rule:evenodd;stroke:none"
       transform="matrix(0.35277776,0,0,-0.35277776,109.33087,60.475355)"
       clip-path="url(#clipPath332)" />
    <path
       id="path333"
       d="m 0,0 c 0,0 -0.62,0.982 -0.479,2.12 0.141,1.138 1.025,2.059 1.025,2.059 0,0 0.317,-1.017 0.377,-2.28 C 0.969,0.938 0,0 0,0"
       style="fill:#009944;fill-opacity:1;fill-rule:evenodd;stroke:none"
       transform="matrix(0.35277776,0,0,-0.35277776,110.96423,59.267445)"
       clip-path="url(#clipPath334)" />
    <path
       id="path335"
       d="m 0,0 c 0,0 0.938,0.117 1.368,1.29 0.388,1.058 0.391,2.287 0.391,2.287 0,0 -0.81,-0.314 -1.524,-1.505 C -0.352,1.095 0,0 0,0"
       style="fill:#009944;fill-opacity:1;fill-rule:evenodd;stroke:none"
       transform="matrix(0.35277776,0,0,-0.35277776,111.63115,58.726811)"
       clip-path="url(#clipPath336)" />
    <path
       id="path337"
       d="m 0,0 c 0,0 1.01,0.466 2.137,0.134 1.126,-0.333 1.994,-1.291 1.994,-1.291 0,0 -1.081,-0.268 -2.368,-0.129 C 0.784,-1.181 0,0 0,0"
       style="fill:#009944;fill-opacity:1;fill-rule:evenodd;stroke:none"
       transform="matrix(0.35277776,0,0,-0.35277776,110.25673,60.015191)"
       clip-path="url(#clipPath338)" />
    <path
       id="path339"
       d="M 0,0 C 0,0 0.857,0.769 1.97,0.72 3.044,0.674 4.002,0.439 4.002,0.439 c 0,0 -0.746,-0.844 -1.936,-1.094 C 1.161,-0.846 0,0 0,0"
       style="fill:#009944;fill-opacity:1;fill-rule:evenodd;stroke:none"
       transform="matrix(0.35277776,0,0,-0.35277776,111.0884,59.419633)"
       clip-path="url(#clipPath340)" />
    <path
       id="path341"
       d="m 0,0 -4.407,0.278 1.142,4.765 C -3.707,4.737 -5.036,4.776 -6.326,4.972 c -2.282,0.345 -4.457,1.055 -6.373,2.033 -2.368,1.208 -4.166,2.699 -5.943,4.73 -1.368,1.564 -2.658,3.793 -2.891,4.536 0.286,-0.108 1.338,-0.365 2.397,-0.552 1.329,-0.235 6.829,-1.403 14.023,-1.716 H 5.113 c 7.194,0.313 12.694,1.481 14.023,1.716 1.059,0.187 2.111,0.444 2.397,0.552 C 21.3,15.528 20.01,13.299 18.641,11.735 16.865,9.704 15.067,8.213 12.699,7.005 10.783,6.027 8.608,5.317 6.326,4.972 5.036,4.776 3.707,4.737 3.265,5.043 L 4.407,0.278 Z"
       style="fill:#cae5cd;fill-opacity:1;fill-rule:nonzero;stroke:none"
       transform="matrix(0.35277776,0,0,-0.35277776,108.19901,69.900694)"
       clip-path="url(#clipPath342)" />
    <path
       id="path343"
       d="m 0,0 1.035,4.226 c 0,0 -1.34,-0.563 -2.786,-0.093 -1.859,0.602 -2.389,2.006 -2.389,2.006 0,0 -2.033,-0.24 -3.539,0.975 -1.356,1.095 -1.502,3.011 -1.502,3.011 0,0 -2.338,0.47 -3.923,2.45 -1.406,1.758 -1.471,3.599 -1.469,4.16 3.048,-1.03 9.069,-2.438 16.223,-2.399 0,0 0.795,4.102 0.865,4.451 0.094,0.47 0.308,1.847 1.441,1.847 h 0.067 c 1.134,0 1.348,-1.377 1.442,-1.847 0.07,-0.349 0.864,-4.451 0.864,-4.451 7.155,-0.039 13.175,1.369 16.223,2.399 0.002,-0.561 -0.062,-2.402 -1.469,-4.16 -1.584,-1.98 -3.923,-2.45 -3.923,-2.45 0,0 -0.146,-1.916 -1.502,-3.011 C 14.152,5.899 12.12,6.139 12.12,6.139 c 0,0 -0.531,-1.404 -2.389,-2.006 C 8.284,3.663 6.945,4.226 6.945,4.226 L 7.979,0 Z"
       style="fill:#ffffff;fill-opacity:1;fill-rule:nonzero;stroke:none"
       transform="matrix(0.35277776,0,0,-0.35277776,106.79154,67.163246)"
       clip-path="url(#clipPath344)" />
    <path
       id="path345"
       d="M 0,0 H 7.183 L 6.095,4.442 6.667,4.201 C 6.673,4.199 7.293,3.946 8.114,3.946 c 0.394,0 0.771,0.057 1.122,0.171 1.681,0.545 2.173,1.77 2.194,1.822 l 0.087,0.225 0.241,-0.027 c 0.001,0 0.152,-0.017 0.396,-0.017 0.658,0 1.912,0.12 2.909,0.925 1.237,0.998 1.386,2.773 1.388,2.791 l 0.018,0.236 0.231,0.047 c 0.023,0.004 2.25,0.476 3.74,2.339 1.035,1.293 1.323,2.644 1.386,3.528 -2.135,-0.682 -7.951,-2.275 -15.603,-2.275 l -0.55,0.002 -0.049,0.251 c 0,0 -0.794,4.1 -0.864,4.449 L 4.746,18.484 C 4.599,19.238 4.351,20.009 3.625,20.009 H 3.558 c -0.726,0 -0.974,-0.771 -1.121,-1.525 L 2.423,18.413 C 2.353,18.064 1.559,13.964 1.559,13.964 L 1.51,13.713 0.96,13.711 c -7.652,0 -13.468,1.593 -15.604,2.275 0.063,-0.885 0.351,-2.235 1.386,-3.528 1.49,-1.863 3.718,-2.335 3.741,-2.339 l 0.23,-0.047 0.019,-0.235 C -9.266,9.819 -9.111,8.039 -7.881,7.045 -6.884,6.24 -5.63,6.12 -4.971,6.12 c 0.244,0 0.395,0.017 0.395,0.017 l 0.243,0.028 0.087,-0.228 c 0.019,-0.05 0.512,-1.275 2.193,-1.82 0.351,-0.114 0.728,-0.171 1.122,-0.171 0.82,0 1.441,0.253 1.447,0.256 l 0.57,0.236 z M 7.979,-0.625 H -0.797 L 0.202,3.454 C -0.092,3.385 -0.485,3.321 -0.931,3.321 -1.39,3.321 -1.833,3.389 -2.246,3.523 -3.799,4.026 -4.492,5.051 -4.73,5.5 -4.797,5.497 -4.878,5.495 -4.971,5.495 c -0.741,0 -2.156,0.138 -3.302,1.064 -1.174,0.947 -1.504,2.433 -1.59,3.001 -0.641,0.172 -2.517,0.8 -3.883,2.507 -1.344,1.68 -1.54,3.45 -1.538,4.356 l 0.001,0.434 0.412,-0.139 c 1.654,-0.559 7.684,-2.382 15.831,-2.382 h 0.034 c 0.174,0.898 0.756,3.903 0.816,4.199 l 0.013,0.069 c 0.108,0.555 0.396,2.03 1.735,2.03 h 0.067 c 1.34,0 1.627,-1.476 1.735,-2.031 l 0.013,-0.068 c 0.059,-0.296 0.642,-3.301 0.816,-4.199 h 0.034 c 8.147,0 14.177,1.823 15.831,2.382 l 0.411,0.139 0.001,-0.434 C 22.469,15.518 22.273,13.748 20.928,12.067 19.563,10.36 17.687,9.732 17.046,9.56 16.96,8.992 16.63,7.506 15.456,6.559 14.167,5.518 12.523,5.474 11.912,5.5 11.675,5.051 10.981,4.026 9.429,3.523 9.015,3.389 8.573,3.321 8.114,3.321 7.667,3.321 7.275,3.385 6.98,3.454 Z"
       style="fill:#009944;fill-opacity:1;fill-rule:nonzero;stroke:none"
       transform="matrix(0.35277776,0,0,-0.35277776,106.93205,67.052968)"
       clip-path="url(#clipPath346)" />
    <path
       id="path347"
       d="m 0,0 c -0.203,0 -0.678,0.021 -0.869,0 -0.106,0.063 -0.185,0.703 -0.106,0.89 0.361,0.847 1.886,1.927 2.31,2.182 0.16,0.096 0.156,0.263 0.169,0.466 C 1.525,3.877 1.385,3.986 1.017,4.682 0.826,5.042 0.932,5.381 0.763,5.402 0.51,5.434 0.271,5.115 -0.02,5.381 c -0.256,0.233 -0.086,0.813 -0.086,1.017 0,0.203 -0.212,0.868 0.127,1.483 0.099,0.179 0.907,1.063 1.208,1.334 0.423,0.381 0.729,0.636 0.72,0.953 -0.021,0.763 0.381,1.081 0.402,1.335 0.029,0.338 0.298,0.954 0.212,1.165 -0.157,0.39 -0.406,1.442 -0.889,1.165 -0.297,-0.169 -0.615,-0.148 -1.377,-0.105 -1.508,0.083 -3.284,-1.674 -4.852,-2.31 -0.295,-0.119 -0.889,-0.066 -1.123,-0.127 -0.325,-0.091 -0.693,-0.174 -0.847,-0.508 -0.109,-0.234 -0.159,-0.51 -0.402,-0.615 -0.297,-0.126 -0.53,-0.227 -0.53,-0.338 0,-0.204 -0.006,-1.036 0.275,-1.144 0.24,-0.093 0.376,0.009 0.509,-0.339 0.054,-0.26 0.347,-0.659 0.614,-0.678 0.297,-0.022 0.678,-0.254 0.953,-0.36 C -4.78,7.183 -4.152,7.097 -4.279,6.546 -4.379,6.113 -4.318,5.228 -4.512,4.936 -4.767,4.555 -5.103,4.106 -5.572,4.067 -5.774,4.051 -6.133,4.137 -6.334,4.11 -6.949,4.025 -7.457,3.585 -7.457,2.945 c 0,-0.407 0.699,-1.219 0.699,-1.229 0.112,-0.234 0.181,-0.409 0.36,-0.572 0.233,-0.212 0.297,-0.626 0.297,-0.657 0,-0.244 -0.17,-0.487 -0.191,-0.826 -0.01,-0.151 -0.098,-0.493 -0.169,-0.636 -0.173,-0.345 -0.433,-0.534 -0.636,-0.656 -0.193,-0.112 -0.702,-0.596 -0.89,-0.657 -0.707,-0.23 -1.534,-1.122 -1.567,-1.504 -0.043,-0.487 0.082,-1.04 0.275,-1.589 0.112,-0.325 0.37,-0.584 0.614,-0.869 0.244,-0.284 0.085,-0.762 0.424,-0.868 0.438,-0.137 0.847,-0.17 0.996,-0.276 0.219,-0.156 0.699,0.022 0.699,0.022 0.402,0.169 1.059,1.165 1.758,1.568 0.838,0.482 2.615,1.17 3.602,1.8 1.047,0.671 2.054,1.398 2.203,2.648 0.024,0.202 -0.126,0.685 -0.233,0.848 C 0.677,-0.346 0.203,0 0,0 m 10.317,8.029 c 0.424,-0.043 0.614,0.212 0.89,0.296 0.158,0.049 0.531,0.051 0.572,-0.211 C 11.821,7.838 11.758,7.372 11.758,7.372 11.588,6.948 11.08,6.673 10.762,6.631 10.629,6.613 10.213,6.932 10.211,7.139 c -0.002,0.204 -0.106,0.657 0.106,0.89 m 0.424,3.559 c 0.063,0.657 1.41,0.624 2.245,0.89 0.101,-0.093 0.085,-0.665 0.085,-0.869 0,-0.285 -0.466,-0.89 -0.805,-1.144 0,0 -0.763,-0.106 -1.208,0.064 -0.346,0.131 -0.35,0.721 -0.317,1.059 M 8.22,10.232 C 8.158,9.681 7.563,9.533 7.097,9.173 6.863,8.992 6.673,9.427 6.673,9.427 6.44,9.639 6.577,10.083 6.567,10.38 6.546,11.058 7.31,10.825 7.499,11.058 8.114,11.207 8.304,10.995 8.22,10.232 M 7.499,5.847 C 7.298,5.739 6.843,5.868 6.504,5.953 6.407,6.132 6.404,6.322 6.419,6.525 6.437,6.778 6.59,7.062 6.694,7.139 6.991,7.224 7.423,7.284 7.838,7.33 8.008,7.349 8.179,7.193 8.156,6.991 8.093,6.44 7.775,5.995 7.499,5.847 m 3.962,-2.839 c 0.238,0.236 0.72,0.17 0.847,0.276 0.186,0.154 0.636,0.105 0.805,0.021 0.182,-0.091 0.569,0.413 0.657,0.656 0.551,1.526 1.292,2.585 1.97,4.11 0.108,0.242 0.781,0.772 0.89,1.017 0.339,0.763 0.572,1.271 0.932,1.737 0.145,0.187 0.233,0.488 0.254,1.081 0.006,0.149 0.517,0.771 0.551,1.165 0.043,0.487 -0.466,1.186 -0.677,1.377 -0.14,0.127 -0.221,0.71 -0.34,0.805 -0.212,0.169 -1.4,0.148 -1.97,0.148 -0.325,0 -0.614,0.381 -1.017,0.381 -0.386,0 -3.326,-1.059 -4.385,-1.419 C 9.6,14.234 8.982,14.363 8.516,14.215 7.8,13.987 7.334,13.696 6.673,13.452 6.449,13.371 5.735,13.184 5.593,13.113 5.4,13.021 4.97,13.028 4.766,13.028 c -0.457,0 -0.444,0.53 -0.868,0.53 C 3.559,13.558 3.156,12.774 3.22,12.16 3.27,11.675 2.966,11.101 2.945,10.783 2.929,10.544 2.796,10.338 2.818,9.978 2.844,9.533 3.156,9.152 3.135,8.919 3.056,8.051 3.338,6.765 3.39,6.44 3.453,6.038 2.86,5.534 2.86,4.894 2.86,4.69 2.962,4.222 3.135,3.877 3.207,3.724 3.661,3.526 3.622,2.966 3.609,2.763 3.771,2.5 3.834,2.33 3.906,2.14 3.876,1.97 4.11,1.906 4.344,1.843 4.457,1.822 4.661,1.822 4.864,1.822 5.197,1.964 5.339,1.97 5.635,2.055 5.887,2.086 6.08,2.182 6.377,2.33 6.619,2.361 6.652,2.097 6.694,1.758 6.567,1.181 6.546,1.144 6.461,0.996 6.25,0.805 6.122,0.763 5.98,0.715 5.86,0.741 5.656,0.741 5.453,0.741 5.372,0.657 5.169,0.657 4.966,0.657 4.927,0.805 4.724,0.805 4.348,0.805 4.319,0.449 4.279,0.212 4.216,-0.169 4.216,-0.318 4.194,-0.593 4.184,-0.734 4.082,-1.068 4.173,-1.25 4.258,-1.419 4.449,-1.525 4.851,-1.589 5.042,-1.758 5.36,-1.737 5.656,-1.695 5.813,-1.672 6.228,-1.885 5.974,-2.246 5.466,-2.436 4.552,-2.814 4.003,-3.115 3.58,-3.347 2.659,-3.615 2.457,-3.644 2.161,-3.686 2.118,-3.411 1.928,-3.39 1.726,-3.367 1.566,-3.708 1.504,-3.729 1.186,-3.919 1.144,-4.343 1.123,-4.533 1.105,-4.695 1.078,-5.03 1.059,-5.232 c -0.063,-0.7 0.225,-1.018 0.254,-1.526 0.022,-0.36 0.807,-0.63 1.144,-0.593 0.954,0.106 1.495,0.509 1.801,0.551 0.466,0.063 1.419,0 1.758,0.169 0.324,0.162 1.038,0.36 1.695,0.339 0.552,-0.018 0.972,0.197 1.398,0.233 0.234,0.02 0.741,0.149 1.25,0.127 0.509,-0.021 1.038,-0.148 1.42,-0.084 0.2,0.033 1.313,0.087 2.606,0.106 1.461,0.021 1.17,-0.311 1.588,-0.276 0.996,0.085 1.737,1.361 1.737,2.5 0,0.803 -0.953,1.038 -0.953,1.546 -0.275,0.297 -0.762,-0.106 -1.186,-0.021 -0.368,0.074 -1.093,-0.242 -1.356,-0.275 -0.339,-0.043 -0.703,0.042 -1.102,0.042 -0.402,0 -1.258,-0.275 -1.461,-0.275 -0.204,0 -0.53,0.042 -0.53,0.423 0,0.316 0.254,0.583 0.339,0.636 0.339,0.212 0.868,0.254 1.102,0.402 0.441,0.281 0.72,0.424 0.953,0.678 0.116,0.137 0.169,0.348 0.169,0.551 0,0.204 -0.339,0.614 -0.275,1.335 0.014,0.155 -0.127,0.445 -0.424,0.487 -0.509,0.073 -0.89,0.297 -1.059,0.339 -0.267,0.067 -0.641,-0.198 -0.763,-0.36 -0.127,-0.17 -0.699,-0.509 -0.953,-0.17 -0.163,0.217 -0.106,0.763 0,0.975 0.174,0.347 1.081,0.212 1.25,0.381"
       style="fill:#231916;fill-opacity:1;fill-rule:evenodd;stroke:none"
       transform="matrix(0.35277776,0,0,-0.35277776,108.71008,109.5557)"
       clip-path="url(#clipPath348)" />
    <path
       id="path349"
       d="M 0,0 C -0.342,0.04 -0.704,0.362 -0.886,0.785 -0.972,0.986 -1.413,0.964 -1.63,1.027 -1.912,1.107 -2.163,1.354 -2.355,1.329 -2.818,1.268 -3.361,1.147 -4.026,0.946 -4.492,0.805 -6.432,0.364 -6.944,0.262 -7.246,0.201 -7.267,0.543 -7.105,0.765 -6.502,1.268 -6.24,1.287 -6.28,2.274 -6.32,3.261 -6.783,3.422 -6.944,3.744 -7.048,3.951 -7.084,4.566 -7.226,4.75 -7.373,4.938 -8,4.936 -8.092,5.012 c -0.241,0.201 -0.245,0.384 -0.483,0.383 -0.193,-0.002 -0.617,-0.039 -0.926,0 -0.231,0.028 -0.552,0.091 -0.744,0.08 -0.343,-0.02 -0.341,-0.135 -0.624,-0.242 -0.162,-0.06 -0.488,-0.015 -0.624,-0.06 -0.121,-0.04 -0.34,-0.249 -0.644,-0.262 -0.392,-0.016 -0.779,0.157 -1.108,-0.181 -0.183,-0.193 -0.282,-0.44 -0.221,-0.624 0.101,-0.302 0.866,-1.409 0.745,-1.811 -0.093,-0.311 -0.161,-0.544 -0.242,-0.725 -0.1,-0.282 -0.144,-0.371 -0.221,-0.584 -0.068,-0.174 -0.194,-0.418 -0.141,-0.603 0.04,-0.141 0.337,-0.401 0.584,-0.443 0.246,-0.043 0.483,0.1 0.604,-0.201 0.048,-0.122 0.151,-0.469 0.1,-0.584 -0.141,-0.322 -0.608,-0.442 -0.865,-0.504 -0.423,-0.1 -1.872,-0.523 -2.114,-0.644 -0.262,-0.221 -0.684,-0.04 -1.147,-0.161 -0.928,-0.242 -1.78,-0.437 -2.697,-0.543 -0.3,-0.029 -0.934,-0.382 -1.128,-0.382 -0.193,0 -0.333,0.338 -0.523,0.301 -0.523,-0.1 -1.599,-0.692 -1.973,-1.006 -0.173,-0.145 -0.194,-0.431 -0.182,-0.683 0.02,-0.403 0.054,-0.782 0.042,-0.867 -0.061,-0.402 -0.081,-0.885 0.261,-1.046 0.282,-0.133 0.779,0.038 0.987,-0.061 0.422,-0.201 0.246,-0.438 0.543,-0.382 0.322,0.06 0.604,0.201 0.664,0.382 0.082,0.051 0.574,0.252 0.765,0.262 0.362,0.02 0.725,0.02 0.906,0.242 0,0 0.428,0.07 0.564,0.02 0.161,-0.061 0.523,-0.02 0.704,0.02 0.317,0.07 0.604,0.221 0.805,0.221 0.322,0 0.537,-0.003 0.745,0.101 0.242,0.12 0.442,-0.018 0.885,0.221 0.262,0.141 0.786,0.141 0.947,0.242 0.302,0.188 0.732,-0.025 0.966,0.261 0.181,0.222 1.981,0.466 3.482,0.866 0.604,0.161 1.299,0.589 1.489,0.624 0.443,0.08 0.826,-0.101 1.027,-0.04 0.392,0.182 0.683,0.265 1.066,0.383 0.262,0.08 0.806,0.261 1.068,0.321 l 1.167,0.141 c 0.193,0 1.277,0.086 1.469,0.1 0.544,0.041 0.704,-0.367 0.866,-0.261 0.463,0.302 1.55,0.745 1.61,1.368 0.039,0.402 0.04,0.713 0.04,0.906 C 0.402,-0.25 0.157,-0.019 0,0 m -16.485,-18.779 c 0,0 0.181,0.382 0.1,0.684 -0.041,0.157 -0.229,0.201 -0.422,0.201 0,0 -1.116,0.022 -1.208,-0.02 -0.221,-0.1 -0.745,-0.261 -1.047,-0.261 -0.241,0 -0.281,1.227 -0.986,1.227 -0.193,0 -0.524,-0.277 -0.785,-0.422 -0.618,-0.348 -0.874,-1.165 -1.067,-1.832 -0.067,-0.241 -0.423,-0.612 -0.423,-0.805 0,-0.193 0.202,-0.491 0.202,-0.684 0,-0.194 -0.141,-0.673 -0.141,-0.866 0,-0.831 0.674,-1.147 1.389,-1.147 0.348,0 0.984,0.425 1.167,0.483 0.213,0.068 0.564,-0.121 0.886,0.08 0.39,0.244 0.562,0.282 0.765,0.524 0.27,0.319 0.201,0.644 0.382,1.087 0.076,0.184 0.463,0.281 0.544,0.402 0.18,0.27 0.383,0.417 0.523,0.584 0.1,0.12 0.124,0.572 0.121,0.765 m 14.986,2.051 c -0.299,0.41 -1.205,1.496 -1.613,1.418 -0.183,-0.035 -0.486,-0.108 -0.672,-0.108 -0.187,0 -0.553,0.277 -0.785,0.244 -0.302,-0.043 -0.644,0.038 -0.797,0.078 -0.188,0.049 -0.664,0.422 -0.793,0.403 -0.403,-0.061 -0.527,0.221 -0.785,0.181 -0.323,-0.242 -0.106,-0.824 -0.265,-1.038 -0.084,-0.112 -0.158,-0.492 -0.058,-0.713 0.078,-0.17 0.281,-0.444 0.302,-1.147 0.01,-0.308 0.504,-0.544 0.524,-1.027 0.008,-0.198 0.501,-0.845 0.644,-1.188 0.112,-0.27 -0.006,-0.671 0.04,-0.885 0.093,-0.42 0.363,-0.664 0.624,-0.664 0.187,0 0.436,0.285 0.805,0.382 0.22,0.058 0.551,-0.026 0.765,0.02 0.383,0.094 0.663,0.167 0.906,0.363 0.196,0.167 0.43,0.482 0.523,0.603 0.196,0.243 0.259,0.707 0.443,0.906 0.233,0.253 0.428,0.317 0.564,0.745 0.056,0.177 0.121,0.674 0.055,0.805 -0.158,0.317 -0.297,0.444 -0.427,0.622 m -8.505,7.127 c -0.066,-0.118 -0.543,-0.564 -0.865,-0.765 -0.481,-0.3 -0.67,-0.581 -1.047,-0.805 -0.237,-0.141 -0.881,-0.342 -1.107,-0.342 -0.419,0 -0.611,0.362 -0.624,0.624 -0.02,0.403 0.233,0.614 0.443,0.745 0.4,0.249 0.909,0.399 1.449,0.624 0.087,0.057 0.422,0.213 0.564,0.362 0.181,0.161 0.461,0.067 0.744,0.241 0,0 0.463,0.162 0.725,0.101 0.143,-0.033 -0.101,-0.463 -0.282,-0.785 m 4.69,0.06 c 0.181,0.302 0.644,0.624 1.167,1.188 0.101,0.282 0.061,0.705 -0.04,0.886 -0.094,0.169 -0.165,0.842 -0.383,1.147 -0.201,0.282 -1.006,0.644 -1.388,0.906 -0.194,0.132 -0.785,-0.02 -0.946,0.04 -0.329,0.124 -0.652,0.322 -0.846,0.322 -0.357,0 -0.404,-0.08 -0.563,-0.181 -0.161,-0.06 -0.302,-0.161 -0.483,-0.262 -0.169,-0.094 -0.361,-0.217 -0.564,-0.362 -0.348,-0.242 -0.545,-0.273 -0.946,-0.383 -0.443,-0.12 -0.511,-0.201 -0.704,-0.201 -0.194,0 -0.63,-0.194 -0.906,-0.322 -0.432,-0.199 -0.952,-0.204 -1.228,-0.342 -0.644,-0.322 -1.349,-0.503 -1.671,-0.483 -0.067,0.142 -0.348,0.437 -0.382,0.503 -0.365,0.258 -0.463,0.383 -0.805,0.423 -0.242,-0.101 -0.624,-0.242 -0.906,-0.403 -0.261,-0.422 -0.926,-0.664 -0.946,-1.771 -0.003,-0.193 0.042,-0.643 0.081,-1.57 0.028,-0.618 0.184,-1.018 0.261,-1.55 0.068,-0.473 0.262,-1.014 0.262,-1.208 0,-0.193 0.074,-0.604 0.101,-0.825 0.072,-0.041 0.136,-0.353 0.181,-0.422 0.1,-0.302 0.057,-0.515 0.221,-0.785 0.077,-0.126 0.318,-0.326 0.382,-0.343 0.402,-0.1 0.874,-0.1 1.067,-0.1 0.194,0 0.471,0.12 0.665,0.12 0.281,0 0.523,-0.321 0.845,-0.241 0.141,-0.04 0.282,-0.37 0.282,-0.523 -0.141,-0.624 -0.182,-1.497 -0.181,-1.57 -0.077,-0.383 0,-0.974 0,-1.168 0,-0.193 -0.009,-0.652 -0.021,-0.845 -0.06,-0.966 -0.379,-1.228 -1.046,-1.228 -0.193,0 -0.644,0.463 -1.308,0.443 -0.097,-0.003 -0.906,-0.04 -0.886,-0.362 0.012,-0.202 1.067,-0.846 1.389,-1.409 0.224,-0.393 0.26,-0.704 0.483,-0.926 0.251,-0.251 0.683,-0.337 0.905,-0.443 0.233,-0.116 0.322,-0.287 0.544,-0.423 0.155,-0.087 0.597,-0.186 0.684,-0.302 0.121,-0.161 0.25,-0.301 0.443,-0.301 0.193,0 0.621,0.33 0.966,0.503 0.483,0.241 0.762,0.915 1.047,1.046 0.262,0.121 0.966,0.765 0.986,1.47 0.024,0.826 0.221,4.629 0,5.193 -0.197,0.504 -0.181,0.974 -0.181,1.167 0,0.403 0.423,0.704 0.564,0.644 0.202,-0.086 0.511,-0.039 0.603,0.081 0.282,0.362 0.622,0.706 0.806,1.026 0.624,1.087 1.106,2.216 1.831,3.201 0.282,0.382 0.564,0.945 0.564,0.945"
       style="fill:#231916;fill-opacity:1;fill-rule:evenodd;stroke:none"
       transform="matrix(0.35277776,0,0,-0.35277776,114.31043,92.805143)"
       clip-path="url(#clipPath350)" />
    <path
       id="path351"
       d="M 0,0 C -0.326,0.228 -0.484,0.14 -0.703,0.2 -0.886,0.249 -1.125,0.595 -1.323,0.655 -1.523,0.716 -1.822,0.649 -2.088,0.62 -2.244,0.467 -2.804,0.015 -3.192,0.008 -3.401,0.004 -3.737,-0.065 -3.764,0.189 c -0.039,0.368 0.091,0.835 0.198,1.232 0.103,0.383 0.216,0.825 0.246,0.958 0.039,0.163 0.272,0.749 0.291,0.831 0.269,0.808 0.254,1.655 0.986,2.369 0.423,0.414 1.346,0.918 1.25,1.039 -0.201,0.251 0.072,0.891 0.11,1.188 C -0.64,8.135 -0.785,8.381 -0.913,8.48 -1.296,8.779 -1.655,8.964 -1.841,9.057 -2.128,9.201 -2.485,9.114 -2.692,8.958 -2.816,8.864 -2.875,8.645 -2.948,8.593 -3.197,8.426 -5.562,8.06 -5.807,7.081 -5.926,6.606 -5.226,6.329 -5.237,5.714 -5.24,5.511 -5.316,5.246 -5.442,4.969 -5.543,4.748 -5.715,4.329 -5.889,4.283 -6.105,4.227 -6.414,4.295 -6.691,3.888 -7.119,3.259 -6.612,3.126 -6.609,2.957 -6.604,2.674 -6.952,2.527 -7.059,2.419 -7.166,2.312 -7.337,2.054 -7.62,1.986 -7.75,1.954 -7.76,1.284 -7.428,1.036 -7.23,0.887 -6.749,0.92 -6.571,0.754 c 0.206,-0.505 -0.442,-0.982 -0.944,-0.991 -0.7,-0.012 -0.201,0.924 -0.518,0.838 -0.587,-0.158 -1.246,0.29 -1.059,0.554 0.107,0.15 0.903,1.245 0.874,1.265 0.76,1.56 1.191,1.907 1.162,2.351 -0.027,0.402 -0.479,0.747 -0.539,0.796 -0.178,0.146 -0.056,0.852 0.005,0.996 0.161,0.389 0.424,0.728 0.854,1.116 0.347,0.313 0.705,0.929 0.437,1.279 C -6.523,9.251 -6.881,9.732 -7.34,9.766 -7.449,9.775 -7.756,9.739 -7.885,9.651 -8.014,9.563 -8.255,9.68 -8.43,9.599 -8.878,9.398 -8.966,8.614 -9.108,8.337 -9.341,7.896 -9.83,7.138 -10.027,7.135 c -0.219,0.059 -0.544,0.626 -0.754,0.622 -0.22,-0.004 -0.69,-0.537 -0.687,-0.69 0.003,-0.203 0.371,-0.664 0.412,-1.094 0.027,-0.275 -0.185,-0.682 -0.375,-1.024 -0.199,-0.356 -0.352,-1.129 -0.001,-1.229 0.265,-0.075 0.171,0.215 0.607,0.286 0.372,0.061 0.759,0.352 0.869,0.333 0.219,-0.038 0.887,-0.726 0.524,-1.241 -0.137,-0.195 -0.485,-1.004 -0.946,-0.906 -0.154,0.033 -0.234,0.373 -0.402,0.501 -0.243,0.187 -0.85,-0.142 -1.072,0.045 -0.152,0.128 -0.286,0.101 -0.27,0.483 0.01,0.255 -0.143,1.904 -0.299,2.071 -0.131,0.14 -0.21,0.346 -0.207,0.611 0.004,0.428 -0.062,1.037 -0.302,1.011 -0.296,-0.032 -0.521,-0.22 -0.628,-0.349 -0.218,-0.264 -0.403,-0.707 -0.378,-0.897 0.01,-0.075 0.116,-0.337 0.142,-0.612 0.031,-0.316 0.037,-1.018 0.01,-1.843 -0.01,-0.336 0.256,-0.885 0.22,-1.289 -0.019,-0.202 -0.08,-1.705 -0.076,-1.908 0.007,-0.437 0.189,-0.802 0.497,-0.923 0.213,-0.085 0.343,0.151 0.476,0.262 0.129,0.108 0.369,0.176 0.341,0.472 -0.02,0.227 0.053,0.721 0.292,0.81 0.329,0.123 0.48,-0.328 0.425,-0.543 -0.082,-0.319 -0.031,-0.429 0.208,-0.653 0.134,-0.125 0.52,0.217 0.717,0.288 0.369,0.133 0.65,0.265 0.788,-0.071 0.076,-0.187 0.022,-0.323 -0.08,-0.425 -0.108,-0.108 -0.366,-0.303 -0.562,-0.37 -0.179,-0.035 -0.516,-0.234 -0.717,-0.246 -0.524,-0.03 -1.054,-0.163 -1.308,-0.235 -0.239,-0.067 -0.611,-0.034 -0.807,-0.056 -0.219,-0.025 -0.673,-0.308 -0.936,-0.249 -0.134,0.03 -0.372,0.238 -0.467,0.479 -0.092,0.231 0.274,0.555 0.332,0.98 0.028,0.202 -0.015,0.624 0.008,0.827 0.056,0.509 -0.213,0.886 -0.217,1.119 -0.004,0.241 -0.067,1.333 -0.094,1.672 -0.026,0.317 0.077,0.594 0.05,0.848 -0.015,0.149 -0.032,0.593 0.032,0.679 0.128,0.172 0.033,0.553 -0.01,0.614 -0.135,0.188 0.01,0.657 -0.083,0.994 -0.087,0.312 -0.045,0.49 -0.124,0.803 -0.068,0.304 -0.072,0.359 -0.292,0.44 -0.196,0.072 -0.192,-0.215 -0.345,-0.218 -0.166,-0.003 -0.521,0.022 -0.678,-0.012 -0.376,-0.088 -0.71,-0.669 -0.467,-0.813 0.125,-0.074 0.234,-1.008 0.222,-1.415 -0.042,-1.357 0.23,-1.925 0.174,-2.476 -0.092,-0.907 -0.181,-2.131 -0.178,-2.334 0.004,-0.203 0.085,-0.838 0.195,-1.141 0.067,-0.202 0.294,-0.575 0.298,-0.779 0.003,-0.203 -0.316,-0.34 -0.387,-0.388 -0.194,-0.13 -0.671,-0.351 -1.129,-0.443 -0.291,-0.059 -0.547,0.054 -0.575,0.435 -0.044,0.618 -0.154,1.597 -0.271,1.69 -0.155,0.124 -0.371,-0.028 -0.371,-0.028 -0.553,-0.836 -0.824,-1.624 -1.316,-2.184 -0.159,-0.18 -0.468,-0.322 -0.541,-0.348 -0.195,-0.11 -0.367,-0.524 -0.293,-0.768 0.348,-1.138 -0.043,-1.284 -0.033,-1.886 0.012,-0.657 0.408,-1.615 0.602,-1.876 0.268,-0.351 0.473,-0.384 0.792,-0.325 0.763,0.141 1.252,0.933 2.05,1.562 0.135,0.106 0.4,0.457 0.471,0.559 0.448,0.643 0.632,1.035 1.004,1.31 0.324,0.238 1.084,0.501 1.607,0.642 0.396,0.109 1.045,0.209 1.35,0.278 0.575,0.13 1.33,0.171 1.767,0.221 0.282,0.033 0.92,0.154 1.089,0.231 0.238,0.11 0.804,0.276 1.088,0.252 0.854,-0.069 1.727,0.009 2.16,0.229 0.193,0.098 1.081,0.081 1.374,0.193 0.347,0.133 1.293,0.178 1.309,0.15 0.135,-0.23 -0.165,-0.966 -0.55,-1.048 -0.218,-0.046 -0.779,-0.479 -0.997,-0.483 -0.39,-0.007 -0.593,0.138 -0.9,0.217 -0.16,0.042 -0.545,-0.073 -0.874,-0.036 -0.195,0.022 -0.92,0.09 -1.071,0.002 -0.182,-0.105 -0.504,-0.3 -0.453,-0.325 -0.64,-0.192 -0.588,-0.159 -0.76,-0.267 -0.24,-0.15 -0.77,-0.112 -0.916,-0.165 -0.448,-0.171 -0.823,-0.201 -1.219,-0.297 -0.283,-0.068 -0.83,-0.035 -1.069,-0.103 -0.087,-0.025 -0.253,-0.178 -0.433,-0.283 -0.259,-0.153 -0.92,0.132 -1.155,-0.083 -0.712,-0.649 -0.651,-1.749 -0.82,-1.943 -0.15,-0.173 -0.229,-0.661 -0.222,-1.064 0.006,-0.36 -0.036,-0.559 0.297,-0.715 0.242,-0.114 0.589,-0.075 0.787,-0.007 0.26,0.089 0.674,0.202 0.931,0.482 0.239,0.26 0.611,0.54 0.821,0.544 0.21,0.004 0.796,0.202 0.745,-0.072 -0.06,-0.319 -0.259,-0.743 -0.355,-0.938 -0.106,-0.214 -0.058,-0.77 -0.137,-0.956 -0.063,-0.149 -0.06,-0.319 -0.276,-0.45 -0.216,-0.131 -0.28,-0.223 -0.78,-0.395 -0.396,-0.139 -0.899,-0.13 -1.284,-0.34 -0.343,-0.189 -0.828,-0.65 -1.038,-0.654 -0.209,-0.003 -0.866,0.282 -1.076,0.278 -0.461,-0.008 -1.324,-0.531 -1.47,-0.915 -0.151,-0.397 -0.245,-1.009 -0.241,-1.212 0.003,-0.204 -0.14,-0.744 0.125,-0.888 0.144,-0.079 0.425,-0.122 0.55,-0.245 0.467,-0.458 0.809,-0.303 1.208,-0.296 0.21,0.003 0.974,0.465 1.346,0.489 0.459,0.029 1.271,0.172 1.635,0.283 0.37,0.112 1.426,0.298 1.591,0.282 0.569,-0.054 0.612,-0.411 0.471,-0.67 -0.445,-0.813 -0.813,-2.62 -1.703,-2.911 -0.42,-0.137 -1.265,-0.234 -2.158,-0.398 -0.512,-0.094 -1.038,-0.081 -0.888,-0.439 0.114,-0.274 1.656,-0.941 1.667,-1.581 0.005,-0.326 -0.095,-0.871 0.105,-1.037 0.416,-0.165 1.096,-0.171 1.727,-0.012 0.411,0.104 0.411,0.24 1.153,0.317 0.413,0.043 0.941,0.358 1.434,0.512 0.717,0.225 0.661,1.22 0.972,1.903 0.059,0.079 0.534,0.47 0.509,0.878 -0.03,0.508 0.157,0.884 0.277,1.331 0.106,0.396 0.092,0.796 0.145,1.155 0.058,0.403 -0.107,1.079 -0.09,1.354 0.033,0.523 1.56,0.811 1.952,0.882 0.25,0.045 0.593,0.223 0.848,0.29 0.508,0.135 0.784,0.141 1.241,0.234 0.264,0.053 0.509,0.365 0.711,0.605 0.236,0.28 0.262,1.036 0.307,1.235 0.081,0.361 -0.387,0.454 -0.468,0.479 -0.593,0.18 -0.955,0.431 -1.189,0.487 -0.658,0.158 -0.928,0.599 -1.213,0.615 -0.207,0.012 -0.413,-0.333 -0.693,-0.372 -0.349,-0.049 -0.781,-0.353 -1.063,-0.422 -0.283,-0.068 -0.546,-0.03 -0.593,0.117 -0.123,0.394 0.062,0.975 0.198,1.169 0.257,0.365 0.829,0.9 1.053,1.057 0.281,0.195 0.604,0.477 0.773,0.818 0.211,0.428 1.222,1.335 2.116,1.499 0.448,0.082 1.047,0.145 1.224,0.021 0.238,-0.166 0.887,-0.184 0.963,-0.089 0.171,0.215 0.523,0.326 0.759,0.331 1.202,0.021 2.233,0.41 2.481,0.658 0.258,0.259 0.416,1.194 0.452,1.639 C 1.252,-1.662 1.149,-0.7 0.792,-0.283 0.555,-0.006 0.177,-0.124 0,0"
       style="fill:#231916;fill-opacity:1;fill-rule:evenodd;stroke:none"
       transform="matrix(0.35277776,0,0,-0.35277776,114.20026,137.69622)"
       clip-path="url(#clipPath352)" />
    <path
       id="path353"
       d="M 0,0 C -0.055,0.395 -0.411,0.758 -0.726,1.132 -0.868,1.3 -1.286,1.381 -1.404,1.454 -1.609,1.582 -2.06,1.652 -2.167,1.654 -2.366,1.657 -3.175,1.601 -3.349,1.633 -3.72,1.702 -4.177,1.689 -4.507,1.757 -4.755,1.808 -5.039,2.139 -5.225,2.163 -5.422,2.189 -5.569,2.1 -5.685,1.964 -5.98,1.617 -6.126,1.619 -6.419,1.397 -6.505,1.253 -6.523,1.095 -6.428,0.92 c 0.161,-0.293 0.7,-0.516 0.655,-1.669 -0.037,-0.952 -0.338,-1.465 -0.398,-2.583 -0.03,-0.579 -0.387,-0.822 -0.642,-1.19 -0.315,-0.264 -0.94,-0.46 -1.316,-0.599 -0.186,-0.069 -0.712,-0.059 -0.954,-0.066 -0.456,-0.013 -0.855,-0.337 -1.313,-0.412 -0.359,-0.059 -0.984,-0.296 -0.948,-0.937 0.063,-1.12 -0.081,-1.096 -0.091,-1.614 -0.007,-0.415 0.139,-0.532 0.194,-0.791 0.082,-0.389 0.007,-0.723 0.208,-1.143 0.12,-0.251 0.253,-0.29 0.449,-0.381 0.185,-0.086 0.514,0.04 0.706,0.091 0.292,0.078 0.719,0.34 0.918,0.336 0.198,-0.003 0.683,0.009 0.996,0.128 0,0 0.406,-0.091 0.513,-0.32 0.098,-0.209 0.065,-2.218 0.065,-2.218 -0.029,-0.476 -0.646,-0.796 -0.97,-0.957 -0.565,-0.28 -1.342,-0.909 -2.092,-1.165 -0.262,-0.089 -0.79,-0.152 -1.21,-0.455 -0.401,-0.29 -0.713,-0.464 -1.131,-0.664 -0.21,-0.101 -0.506,-0.005 -0.726,-0.07 -0.18,-0.047 -0.462,-0.324 -0.467,-0.655 -0.003,-0.13 0.197,-0.542 0.275,-0.855 0.068,-0.274 -0.008,-0.804 0.21,-0.977 0.43,-0.339 0.504,-0.311 0.778,-0.594 0.361,-0.384 0.827,-1.259 1.203,-1.098 0.605,0.258 1.768,1.297 1.888,1.355 0.372,0.202 0.901,0.263 1.211,0.518 0.568,0.466 1.317,0.87 1.989,1.167 0.521,0.229 1.139,0.437 1.545,0.698 0.378,0.242 0.788,1.161 1.454,1.383 0.612,0.205 1.242,0.677 1.676,1.028 0.262,0.204 0.483,0.471 0.553,0.86 0.138,0.765 0.396,1.278 0.443,1.588 0.029,0.197 -0.119,0.439 -0.153,0.728 -0.027,0.219 -0.048,0.328 -0.075,0.478 -0.027,0.149 -0.285,0.252 -0.276,0.813 0.006,0.374 0.058,0.997 0.083,1.2 0.072,0.579 0.185,1.008 0.211,1.405 0.085,1.283 0.113,1.718 0.124,2.319 0.003,0.198 0.1,0.992 0.167,1.281 0.238,0.555 0.529,1.041 0.581,1.233 0.067,0.248 0.054,0.941 0.04,1.139 C -0.073,-0.475 0.049,-0.349 0,0"
       style="fill:#231916;fill-opacity:1;fill-rule:evenodd;stroke:none"
       transform="matrix(0.35277776,0,0,-0.35277776,110.11047,81.687953)"
       clip-path="url(#clipPath354)" />
    <path
       id="path355"
       d="m 0,0 c -0.3,0.106 -0.902,0.145 -1.137,0.123 -0.178,-0.016 -0.536,0.176 -0.721,0.282 -0.071,0.041 -0.517,0.03 -0.743,0.158 -0.079,0.045 -0.801,0.152 -1.033,0.143 -0.415,0.038 -1.095,0.226 -1.46,0.647 -0.512,0.589 -0.361,1.149 -0.529,1.729 -0.057,0.19 -0.134,0.644 -0.066,1.016 0.096,0.516 0.343,1.838 0.659,2.102 0.561,0.114 1.417,0.531 1.901,0.92 0.414,0.331 0.81,0.391 1.193,0.663 0.242,0.175 0.443,0.489 0.86,0.606 0.43,0.121 0.635,0.175 0.999,0.252 0.27,0.058 0.502,0.302 0.486,0.551 -0.013,0.199 -0.034,0.836 -0.168,1.06 -0.262,0.44 -0.417,1.396 -0.803,1.485 -0.681,0.157 -1.119,0.646 -1.421,0.501 -0.25,-0.12 -0.442,-0.406 -0.879,-0.502 -0.234,-0.39 -0.791,-0.235 -0.885,0.305 -0.04,0.226 0.204,1.012 0.204,1.012 0.281,0.658 1.031,0.894 1.071,1.991 0.007,0.199 -0.091,0.844 -0.369,1.436 -0.106,0.231 -0.282,0.5 -0.467,0.526 -0.166,0.024 -0.456,0.031 -0.599,0.135 -0.205,0.149 -0.262,0.398 -0.718,0.427 -0.331,0.021 -0.799,-0.193 -0.998,-0.19 -0.198,0.004 -0.47,0.166 -0.784,0.159 -0.199,-0.005 -0.591,-0.2 -0.874,-0.192 -0.324,0.009 -0.804,0.221 -1.032,0.204 -0.392,-0.028 -0.636,-0.073 -0.776,-0.545 -0.11,-0.372 -0.045,-1.346 -0.045,-1.346 C -9.139,15.459 -9.409,14.129 -9.562,13.655 -9.714,13.187 -9.824,12.873 -9.853,12.417 -9.866,12.219 -9.898,11.183 -9.972,10.389 -9.984,10.23 -10.18,9.604 -10.243,9.088 -10.315,8.489 -10.48,8.574 -10.534,7.809 -10.545,7.657 -10.86,7.186 -10.88,7.027 c -0.192,-1.55 -0.423,-1.671 -0.416,-2.479 0.002,-0.199 0,-1.181 0.16,-1.536 0.065,-0.146 0.131,-0.798 0.128,-0.997 l 0.064,-1.037 c -0.003,-0.198 0.307,-1.393 0.344,-1.663 0.013,-0.092 10e-4,-1.14 0.1,-1.39 0.117,-0.295 0.556,-1.054 0.746,-1.194 0.19,-0.141 0.494,-0.353 0.8,-0.449 0.35,-0.11 1.128,-0.003 1.594,-0.09 0.406,-0.077 0.894,-0.306 1.093,-0.309 0,0 0.931,-0.037 1.284,-0.023 0.248,0.01 0.849,0.051 1.303,-0.126 0.188,-0.073 0.553,-0.362 0.843,-0.367 0.29,-0.005 0.747,0.109 1.207,0.29 0.355,0.139 0.988,0.005 1.226,0.185 0.294,0.223 0.342,0.636 0.474,1.07 0.176,0.577 0.478,1.106 0.567,1.627 C 0.73,-0.924 0.494,-0.174 0,0"
       style="fill:#231916;fill-opacity:1;fill-rule:evenodd;stroke:none"
       transform="matrix(0.35277776,0,0,-0.35277776,114.81942,86.623596)"
       clip-path="url(#clipPath356)" />
    <path
       id="path357"
       d="M 0,0 C 0.206,-0.024 3.071,1.226 4.63,1.767 5.928,2.217 7.693,2.492 8.408,2.541 9.013,2.582 9.87,2.4 10.545,2.494 c 0.577,0.08 1.522,0.205 1.872,0.269 0.458,0.084 1.159,0.263 1.953,0.157 0.384,-0.052 1.576,0.05 1.924,0.007 0.601,-0.075 1.567,-0.171 2.108,-0.175 0.475,-0.003 0.848,0.107 1.28,0.106 0.368,-10e-4 1.035,-0.206 1.242,-0.217 0.207,-0.011 0.523,0.046 1.149,0.07 0.238,0.009 0.435,0.355 0.593,0.595 0.113,0.181 0.285,0.491 0.296,0.698 0.01,0.207 -0.007,0.281 -0.086,0.436 C 22.817,4.469 22.764,4.635 22.762,4.727 22.756,4.965 22.745,5.31 22.653,5.532 22.406,6.157 21.813,6.286 21.471,6.48 21.199,6.639 20.833,6.895 20.568,6.981 20.262,7.08 19.859,7.213 19.652,7.224 19.445,7.235 19.05,7.195 18.805,7.138 18.498,7.068 18.333,6.796 17.922,6.796 16.865,6.795 15.483,6.837 14.526,6.714 14.257,6.945 14.405,7.715 14.43,8.599 c 0.008,0.26 -0.002,0.566 0.125,0.728 0.162,0.208 0.153,0.446 0.187,0.682 0.03,0.211 0.039,0.365 0.25,0.657 0.107,0.148 0.304,0.49 0.296,0.697 -0.035,0.974 -0.509,0.61 -0.438,1.535 0.068,0.883 0.905,0.879 1.839,1.287 0.265,0.11 0.795,0.422 0.919,0.622 0.259,0.418 0.801,0.738 1.198,1.017 0.83,0.583 1.456,0.572 1.522,1.411 0.009,0.119 -0.326,0.384 -0.379,0.603 -0.083,0.342 -0.144,0.684 -0.299,0.902 -0.261,0.366 -0.64,0.552 -0.946,0.914 -0.15,0.177 -0.443,0.369 -0.65,0.379 -0.206,0.011 -0.352,-0.121 -0.762,-0.111 -0.334,0.008 -0.656,0.007 -0.869,-0.106 C 15.156,19.148 14.551,18.887 13.329,18.509 13.178,18.463 12.896,18.337 12.822,18.32 12.654,18.277 12.405,18.19 12.099,18.12 10.703,17.799 8.184,17.401 7.979,17.429 7.442,17.5 6.435,17.936 6.25,17.843 5.784,17.608 5.307,17.569 5.3,17.029 5.298,16.822 5.405,16.15 5.395,15.944 5.384,15.737 5.439,15 5.594,14.809 5.98,14.336 6.311,13.871 6.364,13.408 6.423,12.886 6.362,12.385 6.756,12.242 7.244,12.066 8.035,12.327 8.035,12.327 8.242,12.316 8.694,12.53 9.038,12.49 9.223,12.417 9.252,11.961 9.249,11.572 9.246,11.096 9.145,10.736 9.037,10.416 8.781,9.651 8.696,7.625 7.019,6.957 6.233,6.643 5.162,6.103 4.435,5.882 4.203,5.811 3.76,5.788 3.496,5.694 2.725,5.419 1.339,4.85 1.137,4.802 0.766,4.713 0.201,4.944 -0.002,4.905 -0.264,4.854 -1.698,4.302 -1.916,3.838 -1.781,3.545 -1.761,3.096 -1.806,2.644 -1.827,2.438 -1.865,1.934 -1.771,1.67 -1.069,1.008 -0.344,0.04 0,0"
       style="fill:#231916;fill-opacity:1;fill-rule:evenodd;stroke:none"
       transform="matrix(0.35277776,0,0,-0.35277776,106.47128,121.96537)"
       clip-path="url(#clipPath358)" />
    <path
       id="path359"
       d="m 0,0 c -0.115,0.212 -0.505,0.241 -0.746,0.341 -0.963,0.398 -1.532,0.594 -2.166,0.81 -0.246,0.083 -0.591,0.45 -0.95,0.614 -0.305,0.135 -0.915,0.249 -1.247,0.496 -0.587,0.437 -1.251,1.025 -2.19,1.5 -0.88,0.444 -1.617,1.986 -2.136,2.408 -1.577,1.283 -2.278,2.104 -2.888,2.943 -0.141,0.203 -0.428,0.914 -0.197,1.354 0.161,0.308 0.386,0.685 0.574,0.84 0.273,0.226 1.426,0.59 1.747,0.666 0.322,0.076 0.71,0.089 1.14,0.147 0.429,0.058 0.613,0.24 1,0.424 0.488,0.233 0.952,0.223 1.701,0.729 0.338,0.227 0.551,0.537 0.737,0.544 0.345,0.011 0.362,0.133 0.352,0.444 -0.027,0.765 -0.361,1.671 -0.926,1.759 -0.627,0.098 -1.102,0.048 -1.331,0.429 -0.176,0.292 -1.533,-0.011 -1.533,-0.011 -0.207,-0.004 -0.647,-0.464 -1.012,-0.704 -0.236,-0.155 -0.608,-0.201 -0.853,-0.289 -0.245,-0.088 -0.636,-0.29 -0.723,-0.328 -0.212,-0.093 -0.404,-0.186 -0.578,-0.149 -0.18,0.038 -0.003,0.71 0.014,0.842 0.232,0.633 0.496,1.152 0.597,1.446 0.098,0.284 -0.101,0.428 -0.156,0.772 -0.062,0.383 0.124,0.617 -0.266,0.811 -0.443,0.223 -0.903,0.508 -1.134,0.932 -0.088,0.163 -1.057,-0.016 -1.427,0.058 -0.236,0.047 -0.423,-0.252 -0.768,-0.243 -0.237,0.007 -0.333,0.248 -0.996,0.073 -0.209,-0.055 -0.407,-0.1 -0.395,-0.445 0.008,-0.207 0.135,-0.275 0.066,-1.272 -0.033,-0.519 -0.014,-1.082 -0.164,-1.474 -0.337,-0.875 -0.533,-1.443 -0.48,-2.326 -0.849,-0.419 -1.569,-0.832 -2.517,-0.887 -0.521,-0.03 -1.256,0.107 -1.534,0.033 -0.356,-0.096 -0.465,-0.297 -0.633,-0.411 -0.234,-0.157 -0.536,-0.127 -0.746,-0.285 -0.163,-0.123 -0.331,-0.422 -0.583,-0.603 -0.285,-0.206 -0.39,-0.51 -0.334,-0.962 0.12,-0.968 0.944,-1.513 1.242,-1.554 0.499,-0.069 0.695,-0.38 1.075,-0.503 0.284,-0.076 0.37,-0.073 0.691,0.003 0.236,0.03 0.52,0.191 0.727,0.198 0.207,0.007 0.333,-0.01 0.54,-0.003 0.207,0.008 0.68,0.158 0.712,0.025 0.05,-0.213 -0.171,-0.748 -0.29,-0.982 -0.223,-0.44 -0.422,-1.538 -1.363,-2.4 -1.016,-0.931 -2.538,-2.745 -3.53,-3.384 -0.128,-0.082 -0.443,-0.127 -0.532,-0.234 -0.166,-0.2 -0.663,-0.49 -0.757,-0.566 C -25.56,1.311 -25.79,1.14 -26.267,0.983 -26.779,0.814 -26.9,0.572 -26.744,0.426 c 0.115,-0.107 0.594,-0.186 0.743,-0.254 0.264,-0.121 0.269,-0.762 0.442,-0.891 0.221,-0.166 0.343,-0.455 0.578,-0.499 0.154,-0.028 0.672,0.07 0.858,0.16 0.34,0.163 1.119,0.125 1.562,0.4 0.337,0.208 1.311,0.673 1.696,0.922 0.422,0.274 1.492,0.528 2.282,1.397 0.924,1.017 1.476,1.358 2.235,2.172 0.679,0.729 1.421,2.414 1.537,2.343 0.331,-0.205 1.231,-1.231 2.227,-1.952 0.273,-0.198 0.935,-0.998 1.032,-1.108 0.508,-0.604 0.968,-1.454 1.604,-2.038 1.517,-1.394 1.094,-1.646 1.406,-2.52 0.116,-0.327 0.594,-0.556 0.928,-0.637 0.492,-0.128 1.01,0.145 1.628,-0.224 0.295,-0.177 0.913,-0.184 1.043,-0.201 0.475,-0.063 0.905,0.053 1.187,0.02 0.282,-0.034 1.04,-0.087 1.146,-0.068 0.151,0.026 0.368,-0.031 0.515,0.104 0.135,0.124 0.296,0.404 0.503,0.428 0.538,0.062 0.896,0.225 1.251,0.648 0.187,0.222 0.088,0.586 0.102,0.802 C -0.228,-0.391 0.099,-0.182 0,0"
       style="fill:#231916;fill-opacity:1;fill-rule:evenodd;stroke:none"
       transform="matrix(0.35277776,0,0,-0.35277776,115.54039,131.29835)"
       clip-path="url(#clipPath360)" />
    <path
       id="path361"
       d="m 0,0 v -1.601 c 0,-0.35 0.071,-0.611 0.213,-0.784 0.142,-0.174 0.357,-0.26 0.645,-0.26 0.247,0 0.433,0.091 0.557,0.274 0.124,0.182 0.186,0.457 0.186,0.825 V 0 Z m -3.168,0 v -1.701 c 0,-0.365 0.086,-0.639 0.258,-0.821 0.172,-0.182 0.431,-0.274 0.778,-0.274 0.305,0 0.532,0.094 0.682,0.281 0.15,0.187 0.226,0.467 0.226,0.841 V 0 Z M 2.855,1.341 V 0.67 -1.906 C 2.855,-2.554 2.692,-3.06 2.367,-3.425 2.041,-3.79 1.59,-3.973 1.011,-3.973 c -0.605,0 -1.064,0.206 -1.378,0.616 -0.053,0.067 -0.101,0.142 -0.144,0.224 -0.066,-0.158 -0.145,-0.298 -0.238,-0.42 -0.32,-0.429 -0.788,-0.643 -1.402,-0.643 -0.744,0 -1.31,0.212 -1.698,0.636 -0.388,0.425 -0.583,1.044 -0.583,1.859 V 0.67 1.341 Z"
       style="fill:#231916;fill-opacity:1;fill-rule:nonzero;stroke:none"
       transform="matrix(0.35277776,0,0,-0.35277776,102.48433,81.111055)"
       clip-path="url(#clipPath362)" />
    <path
       id="path363"
       d="M 0,0 H 7.287 V -4.935 H 6.642 5.993 V -1.4 H 4.446 V -4.679 H 3.822 3.192 V -1.4 H 1.294 V -5.09 H 0.649 0 Z"
       style="fill:#231916;fill-opacity:1;fill-rule:nonzero;stroke:none"
       transform="matrix(0.35277776,0,0,-0.35277776,100.92096,83.149476)"
       clip-path="url(#clipPath364)" />
    <path
       id="path365"
       d="M 0,0 V -0.698 -1.4 H -7.287 V -0.702 0 Z"
       style="fill:#231916;fill-opacity:1;fill-rule:nonzero;stroke:none"
       transform="matrix(0.35277776,0,0,-0.35277776,103.49158,85.439003)"
       clip-path="url(#clipPath366)" />
    <path
       id="path367"
       d="M 0,0 V -0.698 -1.4 h -5.24 c -0.74,0 -1.299,0.182 -1.677,0.547 -0.379,0.365 -0.568,0.903 -0.568,1.615 0,0.757 0.208,1.312 0.625,1.664 0.416,0.353 1.059,0.517 1.928,0.493 h 0.436 V 1.587 H -4.932 C -5.375,1.599 -5.703,1.539 -5.916,1.407 -6.129,1.275 -6.236,1.064 -6.236,0.775 -6.236,0.499 -6.158,0.3 -6.003,0.18 -5.848,0.06 -5.593,0 -5.24,0 Z"
       style="fill:#231916;fill-opacity:1;fill-rule:nonzero;stroke:none"
       transform="matrix(0.35277776,0,0,-0.35277776,103.49158,87.377587)"
       clip-path="url(#clipPath368)" />
    <path
       id="path369"
       d="M 0,0 V -0.698 -1.4 H -7.287 V -0.702 0 Z"
       style="fill:#231916;fill-opacity:1;fill-rule:nonzero;stroke:none"
       transform="matrix(0.35277776,0,0,-0.35277776,103.49158,88.450702)"
       clip-path="url(#clipPath370)" />
    <path
       id="path371"
       d="M 0,0 V 0.652 1.309 H 7.287 V 0.575 -0.159 L 2.171,-2.851 H 7.287 V -3.503 -4.159 H 0 v 0.697 0.698 L 5.255,0 Z"
       style="fill:#231916;fill-opacity:1;fill-rule:nonzero;stroke:none"
       transform="matrix(0.35277776,0,0,-0.35277776,100.92096,89.975901)"
       clip-path="url(#clipPath372)" />
    <path
       id="path373"
       d="m 0,0 c 0,0.976 0.342,1.751 1.026,2.324 0.684,0.573 1.609,0.86 2.776,0.86 1.19,0 2.134,-0.298 2.833,-0.894 C 7.334,1.694 7.683,0.888 7.683,-0.128 7.683,-0.942 7.462,-1.614 7.019,-2.141 6.576,-2.669 5.978,-2.977 5.225,-3.065 v 1.4 c 0.317,0.037 0.595,0.201 0.835,0.493 0.239,0.293 0.359,0.616 0.359,0.968 0,0.609 -0.229,1.086 -0.686,1.43 C 5.275,1.57 4.64,1.742 3.827,1.742 3.001,1.742 2.372,1.577 1.941,1.247 1.509,0.917 1.294,0.434 1.294,-0.202 v 0.005 c 0,-0.542 0.224,-0.965 0.674,-1.269 0.254,-0.167 0.553,-0.29 0.897,-0.369 H 2.88 v 1.578 H 4.134 V -3.065 H 0.203 v 0.935 l 0.942,0.137 -0.119,0.082 C 0.342,-1.44 0,-0.801 0,0.005 Z"
       style="fill:#231916;fill-opacity:1;fill-rule:nonzero;stroke:none"
       transform="matrix(0.35277776,0,0,-0.35277776,100.85104,93.066589)"
       clip-path="url(#clipPath374)" />
    <path
       id="path375"
       d="M 0,0 V -0.698 -1.4 H -7.287 V -0.702 0 Z"
       style="fill:#231916;fill-opacity:1;fill-rule:nonzero;stroke:none"
       transform="matrix(0.35277776,0,0,-0.35277776,103.49158,95.751755)"
       clip-path="url(#clipPath376)" />
    <path
       id="path377"
       d="M 0,0 V 0.652 1.309 H 7.287 V 0.575 -0.16 L 2.171,-2.851 H 7.287 V -3.503 -4.16 H 0 v 0.698 0.698 L 5.255,0 Z"
       style="fill:#231916;fill-opacity:1;fill-rule:nonzero;stroke:none"
       transform="matrix(0.35277776,0,0,-0.35277776,100.92096,97.276779)"
       clip-path="url(#clipPath378)" />
    <path
       id="path379"
       d="m 0,0 c 0.347,0.024 0.622,0.164 0.825,0.419 0.204,0.256 0.305,0.589 0.305,0.999 0,0.355 -0.085,0.633 -0.255,0.834 -0.17,0.2 -0.407,0.3 -0.711,0.3 -0.219,0 -0.387,-0.104 -0.506,-0.314 C -0.461,2.031 -0.601,1.592 -0.763,0.92 -1.001,-0.056 -1.276,-0.708 -1.586,-1.036 -1.894,-1.365 -2.388,-1.53 -3.068,-1.53 c -0.684,0 -1.227,0.248 -1.629,0.743 -0.401,0.496 -0.602,1.166 -0.602,2.011 0,0.848 0.213,1.511 0.639,1.989 0.427,0.477 1.033,0.732 1.82,0.766 V 2.628 C -3.227,2.614 -3.524,2.484 -3.733,2.241 -3.941,1.998 -4.045,1.659 -4.045,1.224 c 0,-0.447 0.079,-0.795 0.236,-1.046 0.157,-0.251 0.374,-0.376 0.651,-0.376 0.275,0 0.476,0.09 0.605,0.271 0.129,0.176 0.263,0.553 0.402,1.13 0.257,1.064 0.537,1.775 0.837,2.133 0.298,0.357 0.762,0.534 1.393,0.534 0.707,0 1.268,-0.235 1.683,-0.706 C 2.177,2.692 2.384,2.056 2.384,1.253 2.384,0.503 2.169,-0.108 1.74,-0.58 1.31,-1.051 0.73,-1.312 0,-1.364 Z"
       style="fill:#231916;fill-opacity:1;fill-rule:nonzero;stroke:none"
       transform="matrix(0.35277776,0,0,-0.35277776,102.72041,100.6324)"
       clip-path="url(#clipPath380)" />
    <path
       id="path381"
       d="m 0,0 v 2.025 h 0.644 0.65 v -5.45 H 0.649 0 V -1.4 H -5.993 V -0.703 0 Z"
       style="fill:#231916;fill-opacity:1;fill-rule:nonzero;stroke:none"
       transform="matrix(0.35277776,0,0,-0.35277776,103.03519,102.19037)"
       clip-path="url(#clipPath382)" />
    <path
       id="path383"
       d="M 0,0 V -0.698 -1.4 H -7.287 V -0.702 0 Z"
       style="fill:#231916;fill-opacity:1;fill-rule:nonzero;stroke:none"
       transform="matrix(0.35277776,0,0,-0.35277776,103.49158,103.78475)"
       clip-path="url(#clipPath384)" />
    <path
       id="path385"
       d="m 0,0 v 2.025 h 0.644 0.65 v -5.45 H 0.649 0 V -1.4 H -5.993 V -0.702 0 Z"
       style="fill:#231916;fill-opacity:1;fill-rule:nonzero;stroke:none"
       transform="matrix(0.35277776,0,0,-0.35277776,103.03519,105.38238)"
       clip-path="url(#clipPath386)" />
    <path
       id="path387"
       d="m 0,0 c -1.041,-0.003 -1.792,0.207 -2.253,0.632 -0.461,0.424 -0.691,1.115 -0.691,2.072 0,0.919 0.24,1.599 0.721,2.041 C -1.742,5.188 -1.001,5.411 0,5.414 H 4.541 V 4.716 4.014 H -0.05 c -0.522,0 -0.913,-0.109 -1.174,-0.326 -0.261,-0.218 -0.392,-0.546 -0.392,-0.984 0,-0.468 0.12,-0.802 0.359,-1.003 C -1.017,1.5 -0.615,1.4 -0.05,1.4 H 4.541 V 0.702 0 Z"
       style="fill:#231916;fill-opacity:1;fill-rule:nonzero;stroke:none"
       transform="matrix(0.35277776,0,0,-0.35277776,101.88976,108.91231)"
       clip-path="url(#clipPath388)" />
    <path
       id="path389"
       d="m 0,0 v 2.025 h 0.644 0.65 v -5.45 H 0.649 0 V -1.4 H -5.993 V -0.703 0 Z"
       style="fill:#231916;fill-opacity:1;fill-rule:nonzero;stroke:none"
       transform="matrix(0.35277776,0,0,-0.35277776,103.03519,110.03848)"
       clip-path="url(#clipPath390)" />
    <path
       id="path391"
       d="M 0,0 H 7.287 V -4.935 H 6.642 5.993 V -1.4 H 4.446 V -4.679 H 3.822 3.192 V -1.4 H 1.294 V -5.09 H 0.649 0 Z"
       style="fill:#231916;fill-opacity:1;fill-rule:nonzero;stroke:none"
       transform="matrix(0.35277776,0,0,-0.35277776,100.92096,111.67308)"
       clip-path="url(#clipPath392)" />
    <path
       id="path393"
       d="m 0,0 c 0.445,-0.322 1.062,-0.483 1.851,-0.483 0.807,0 1.438,0.161 1.894,0.483 0.456,0.323 0.684,0.77 0.684,1.341 0,0.569 -0.228,1.014 -0.684,1.337 C 3.289,3 2.658,3.161 1.851,3.161 1.062,3.161 0.445,3.001 0,2.68 -0.444,2.359 -0.667,1.913 -0.667,1.341 -0.667,0.77 -0.444,0.323 0,0 M -0.934,3.69 C -0.25,4.271 0.675,4.561 1.842,4.561 3.031,4.561 3.976,4.271 4.674,3.69 5.373,3.109 5.723,2.326 5.723,1.341 5.723,0.35 5.373,-0.435 4.674,-1.015 3.976,-1.594 3.031,-1.883 1.842,-1.883 c -1.167,0 -2.092,0.289 -2.776,0.868 -0.684,0.58 -1.026,1.365 -1.026,2.356 0,0.985 0.342,1.768 1.026,2.349"
       style="fill:#231916;fill-opacity:1;fill-rule:nonzero;stroke:none"
       transform="matrix(0.35277776,0,0,-0.35277776,101.54263,116.55287)"
       clip-path="url(#clipPath394)" />
    <path
       id="path395"
       d="M 0,0 H 7.287 V -4.771 H 6.642 5.993 V -1.4 H 4.337 V -4.337 H 3.713 3.083 V -1.4 H 0 v 0.698 z"
       style="fill:#231916;fill-opacity:1;fill-rule:nonzero;stroke:none"
       transform="matrix(0.35277776,0,0,-0.35277776,100.92096,117.74491)"
       clip-path="url(#clipPath396)" />
    <path
       id="path397"
       d="m 0,0 v 2.025 h 0.644 0.65 v -5.45 H 0.649 0 V -1.4 H -5.993 V -0.702 0 Z"
       style="fill:#231916;fill-opacity:1;fill-rule:nonzero;stroke:none"
       transform="matrix(0.35277776,0,0,-0.35277776,103.03519,121.44692)"
       clip-path="url(#clipPath398)" />
    <path
       id="path399"
       d="M 0,0 H 7.287 V -4.935 H 6.642 5.993 V -1.4 H 4.446 V -4.679 H 3.822 3.192 V -1.4 H 1.294 V -5.09 H 0.649 0 Z"
       style="fill:#231916;fill-opacity:1;fill-rule:nonzero;stroke:none"
       transform="matrix(0.35277776,0,0,-0.35277776,100.92096,123.08156)"
       clip-path="url(#clipPath400)" />
    <path
       id="path401"
       d="m 0,0 c -0.843,0.085 -1.512,0.388 -2.008,0.91 -0.495,0.521 -0.743,1.185 -0.743,1.991 0,0.942 0.342,1.691 1.026,2.246 0.684,0.555 1.609,0.832 2.776,0.832 1.19,0 2.134,-0.277 2.833,-0.832 C 4.583,4.592 4.932,3.843 4.932,2.901 4.932,2.104 4.698,1.444 4.231,0.921 3.763,0.398 3.13,0.091 2.33,0 v 1.4 c 0.393,0.046 0.705,0.202 0.937,0.468 0.231,0.267 0.347,0.606 0.347,1.017 0,0.52 -0.226,0.928 -0.677,1.224 C 2.486,4.404 1.861,4.552 1.061,4.552 0.281,4.552 -0.33,4.405 -0.771,4.111 -1.212,3.817 -1.433,3.408 -1.433,2.885 c 0,-0.411 0.129,-0.75 0.387,-1.017 C -0.788,1.602 -0.44,1.446 0,1.4 Z"
       style="fill:#231916;fill-opacity:1;fill-rule:nonzero;stroke:none"
       transform="matrix(0.35277776,0,0,-0.35277776,101.82157,127.41427)"
       clip-path="url(#clipPath402)" />
    <path
       id="path403"
       d="M 0,0 V -0.698 -1.4 H -2.731 V -4.023 H 0 v -0.698 -0.702 h -7.287 v 0.698 0.702 h 3.302 V -1.4 H -7.287 V -0.703 0 Z"
       style="fill:#231916;fill-opacity:1;fill-rule:nonzero;stroke:none"
       transform="matrix(0.35277776,0,0,-0.35277776,103.49158,127.90495)"
       clip-path="url(#clipPath404)" />
    <path
       id="path405"
       d="M 0,0 V 0.652 1.309 H 7.287 V 0.575 -0.159 L 2.171,-2.851 H 7.287 V -3.503 -4.159 H 0 v 0.697 0.698 L 5.255,0 Z"
       style="fill:#231916;fill-opacity:1;fill-rule:nonzero;stroke:none"
       transform="matrix(0.35277776,0,0,-0.35277776,100.92096,130.87174)"
       clip-path="url(#clipPath406)" />
    <path
       id="path407"
       d="m 0,0 c 0.445,-0.322 1.062,-0.483 1.851,-0.483 0.807,0 1.438,0.161 1.894,0.483 0.456,0.323 0.684,0.77 0.684,1.341 0,0.569 -0.228,1.014 -0.684,1.337 C 3.289,3 2.658,3.161 1.851,3.161 1.062,3.161 0.445,3.001 0,2.68 -0.444,2.359 -0.667,1.913 -0.667,1.341 -0.667,0.77 -0.444,0.323 0,0 M -0.934,3.69 C -0.25,4.271 0.675,4.561 1.842,4.561 3.031,4.561 3.976,4.271 4.674,3.69 5.373,3.109 5.723,2.326 5.723,1.341 5.723,0.35 5.373,-0.435 4.674,-1.015 3.976,-1.594 3.031,-1.883 1.842,-1.883 c -1.167,0 -2.092,0.289 -2.776,0.868 -0.684,0.58 -1.026,1.365 -1.026,2.356 0,0.985 0.342,1.768 1.026,2.349"
       style="fill:#231916;fill-opacity:1;fill-rule:nonzero;stroke:none"
       transform="matrix(0.35277776,0,0,-0.35277776,101.54263,134.44844)"
       clip-path="url(#clipPath408)" />
    <path
       id="path409"
       d="M 0,0 H 7.287 V -0.698 -1.4 H 1.294 V -4.734 H 0.649 0 Z"
       style="fill:#231916;fill-opacity:1;fill-rule:nonzero;stroke:none"
       transform="matrix(0.35277776,0,0,-0.35277776,100.92096,135.64048)"
       clip-path="url(#clipPath410)" />
    <path
       id="path411"
       d="m 0,0 c 0.445,-0.322 1.062,-0.483 1.851,-0.483 0.807,0 1.438,0.161 1.894,0.483 0.456,0.322 0.684,0.769 0.684,1.341 0,0.569 -0.228,1.014 -0.684,1.336 C 3.289,2.999 2.658,3.16 1.851,3.16 1.062,3.16 0.445,3 0,2.68 -0.444,2.359 -0.667,1.913 -0.667,1.341 -0.667,0.769 -0.444,0.322 0,0 M -0.934,3.69 C -0.25,4.27 0.675,4.561 1.842,4.561 3.031,4.561 3.976,4.27 4.674,3.69 5.373,3.109 5.723,2.326 5.723,1.341 5.723,0.35 5.373,-0.435 4.674,-1.015 3.976,-1.594 3.031,-1.884 1.842,-1.884 c -1.167,0 -2.092,0.29 -2.776,0.869 -0.684,0.58 -1.026,1.365 -1.026,2.356 0,0.985 0.342,1.768 1.026,2.349"
       style="fill:#231916;fill-opacity:1;fill-rule:nonzero;stroke:none"
       transform="matrix(0.35277776,0,0,-0.35277776,101.54263,139.28792)"
       clip-path="url(#clipPath412)" />
    <path
       id="path413"
       d="m 0,0 c 0,0.976 0.342,1.751 1.026,2.324 0.684,0.573 1.609,0.86 2.776,0.86 1.19,0 2.134,-0.298 2.833,-0.894 C 7.334,1.694 7.683,0.888 7.683,-0.128 7.683,-0.942 7.462,-1.614 7.019,-2.141 6.576,-2.669 5.978,-2.977 5.225,-3.065 v 1.4 c 0.317,0.037 0.595,0.201 0.835,0.493 0.239,0.293 0.359,0.616 0.359,0.968 0,0.609 -0.229,1.086 -0.686,1.43 C 5.275,1.57 4.64,1.742 3.827,1.742 3.001,1.742 2.372,1.577 1.941,1.247 1.509,0.917 1.294,0.434 1.294,-0.202 v 0.005 c 0,-0.542 0.224,-0.965 0.674,-1.269 0.254,-0.167 0.553,-0.29 0.897,-0.369 H 2.88 v 1.578 H 4.134 V -3.065 H 0.203 v 0.935 l 0.942,0.137 -0.119,0.082 C 0.342,-1.44 0,-0.801 0,0.005 Z"
       style="fill:#231916;fill-opacity:1;fill-rule:nonzero;stroke:none"
       transform="matrix(0.35277776,0,0,-0.35277776,100.85104,141.49698)"
       clip-path="url(#clipPath414)" />
    <path
       id="path415"
       d="M 0,0 4.546,2.34 V 1.509 0.673 L 1.388,-0.722 1.383,-0.72 4.546,-2.029 V -2.823 -3.617 L 0.03,-1.4 H -2.741 V -0.702 0 Z"
       style="fill:#231916;fill-opacity:1;fill-rule:nonzero;stroke:none"
       transform="matrix(0.35277776,0,0,-0.35277776,101.88803,143.79928)"
       clip-path="url(#clipPath416)" />
  </g>
</svg>
